<svg width="17" height="24" viewBox="0 0 17 24" fill="none" xmlns="http://www.w3.org/2000/svg">
<g opacity="0.3">
<path d="M1.34098 14.5C1.34098 12.976 1.67698 11.812 2.34898 11.008C3.03298 10.192 4.01098 9.784 5.28298 9.784C5.95498 9.784 6.53698 9.898 7.02898 10.126C7.53298 10.342 7.94698 10.66 8.27098 11.08C8.59498 11.488 8.83498 11.986 8.99099 12.574C9.14698 13.15 9.22498 13.792 9.22498 14.5C9.22498 16.024 8.88298 17.194 8.19898 18.01C7.52698 18.814 6.55498 19.216 5.28298 19.216C4.61098 19.216 4.02298 19.108 3.51898 18.892C3.02698 18.664 2.61898 18.346 2.29498 17.938C1.97098 17.518 1.73098 17.02 1.57498 16.444C1.41898 15.856 1.34098 15.208 1.34098 14.5ZM2.83498 14.5C2.83498 14.956 2.87698 15.394 2.96098 15.814C3.05698 16.234 3.20098 16.6 3.39298 16.912C3.58498 17.224 3.83698 17.476 4.14898 17.668C4.46098 17.86 4.83898 17.956 5.28298 17.956C6.91498 17.968 7.73098 16.816 7.73098 14.5C7.73098 14.032 7.68298 13.588 7.58698 13.168C7.50298 12.748 7.36498 12.382 7.17298 12.07C6.98098 11.758 6.72898 11.512 6.41698 11.332C6.10498 11.14 5.72698 11.044 5.28298 11.044C3.65098 11.032 2.83498 12.184 2.83498 14.5ZM16.9561 11.26H14.1301V19H12.6901V11.26H9.86413V10H16.9561V11.26Z" fill="black"/>
</g>
</svg>
